<svg xmlns="http://www.w3.org/2000/svg" xmlns:xlink="http://www.w3.org/1999/xlink" contentStyleType="text/css" data-diagram-type="DESCRIPTION" height="1014px" preserveAspectRatio="none" style="width:1826px;height:1014px;background:#FFFFFF;" version="1.1" viewBox="0 0 1826 1014" width="1826px" zoomAndPan="magnify"><title>System Bankowy - Architektura Systemu</title><defs/><g><g class="title" data-source-line="1"><text fill="#000000" font-family="sans-serif" font-size="14" font-weight="bold" lengthAdjust="spacing" textLength="272.3164" x="769.8821" y="24.5332">System Bankowy - Architektura Systemu</text></g><!--cluster System Bankowy--><g class="cluster" data-entity="System Bankowy" data-source-line="7" data-uid="ent0004" id="cluster_System Bankowy"><rect fill="none" height="963" rx="2.5" ry="2.5" style="stroke:#181818;stroke-width:1;" width="1524" x="7" y="45.6094"/><path d="M132.1582,45.6094 L132.1582,56.2188 L122.1582,66.2188 L7,66.2188" fill="none" style="stroke:#181818;stroke-width:1;"/><text fill="#000000" font-family="sans-serif" font-size="14" font-weight="bold" lengthAdjust="spacing" textLength="115.1582" x="10" y="61.1426">System Bankowy</text></g><!--cluster UI Layer--><g class="cluster" data-entity="UI Layer" data-source-line="8" data-uid="ent0005" id="cluster_UI Layer"><path d="M827.5,89.6094 L883.748,89.6094 A3.75,3.75 0 0 1 886.248,92.1094 L893.248,113.2188 L1217.5,113.2188 A2.5,2.5 0 0 1 1220,115.7188 L1220,325.1094 A2.5,2.5 0 0 1 1217.5,327.6094 L827.5,327.6094 A2.5,2.5 0 0 1 825,325.1094 L825,92.1094 A2.5,2.5 0 0 1 827.5,89.6094" fill="none" style="stroke:#000000;stroke-width:1.5;"/><line style="stroke:#000000;stroke-width:1.5;" x1="825" x2="893.248" y1="113.2188" y2="113.2188"/><text fill="#000000" font-family="sans-serif" font-size="14" font-weight="bold" lengthAdjust="spacing" textLength="55.248" x="829" y="106.1426">UI Layer</text></g><!--cluster Business Layer--><g class="cluster" data-entity="Business Layer" data-source-line="14" data-uid="ent0009" id="cluster_Business Layer"><path d="M108.5,377.6094 L212.9961,377.6094 A3.75,3.75 0 0 1 215.4961,380.1094 L222.4961,401.2188 L1236.5,401.2188 A2.5,2.5 0 0 1 1239,403.7188 L1239,492.1094 A2.5,2.5 0 0 1 1236.5,494.6094 L108.5,494.6094 A2.5,2.5 0 0 1 106,492.1094 L106,380.1094 A2.5,2.5 0 0 1 108.5,377.6094" fill="none" style="stroke:#000000;stroke-width:1.5;"/><line style="stroke:#000000;stroke-width:1.5;" x1="106" x2="222.4961" y1="401.2188" y2="401.2188"/><text fill="#000000" font-family="sans-serif" font-size="14" font-weight="bold" lengthAdjust="spacing" textLength="103.4961" x="110" y="394.1426">Business Layer</text></g><!--cluster Data Layer--><g class="cluster" data-entity="Data Layer" data-source-line="22" data-uid="ent0015" id="cluster_Data Layer"><path d="M369.5,709.6094 L442.0928,709.6094 A3.75,3.75 0 0 1 444.5928,712.1094 L451.5928,733.2188 L901.5,733.2188 A2.5,2.5 0 0 1 904,735.7188 L904,806.1094 A2.5,2.5 0 0 1 901.5,808.6094 L369.5,808.6094 A2.5,2.5 0 0 1 367,806.1094 L367,712.1094 A2.5,2.5 0 0 1 369.5,709.6094" fill="none" style="stroke:#000000;stroke-width:1.5;"/><line style="stroke:#000000;stroke-width:1.5;" x1="367" x2="451.5928" y1="733.2188" y2="733.2188"/><text fill="#000000" font-family="sans-serif" font-size="14" font-weight="bold" lengthAdjust="spacing" textLength="71.5928" x="371" y="726.1426">Data Layer</text></g><!--cluster Integration Layer--><g class="cluster" data-entity="Integration Layer" data-source-line="29" data-uid="ent0020" id="cluster_Integration Layer"><path d="M949.5,544.6094 L1064.0791,544.6094 A3.75,3.75 0 0 1 1066.5791,547.1094 L1073.5791,568.2188 L1357.5,568.2188 A2.5,2.5 0 0 1 1360,570.7188 L1360,815.1094 A2.5,2.5 0 0 1 1357.5,817.6094 L949.5,817.6094 A2.5,2.5 0 0 1 947,815.1094 L947,547.1094 A2.5,2.5 0 0 1 949.5,544.6094" fill="none" style="stroke:#000000;stroke-width:1.5;"/><line style="stroke:#000000;stroke-width:1.5;" x1="947" x2="1073.5791" y1="568.2188" y2="568.2188"/><text fill="#000000" font-family="sans-serif" font-size="14" font-weight="bold" lengthAdjust="spacing" textLength="113.5791" x="951" y="561.1426">Integration Layer</text></g><!--cluster Monitoring Layer--><g class="cluster" data-entity="Monitoring Layer" data-source-line="35" data-uid="ent0024" id="cluster_Monitoring Layer"><path d="M831.5,867.6094 L946.0586,867.6094 A3.75,3.75 0 0 1 948.5586,870.1094 L955.5586,891.2188 L1016.5,891.2188 A2.5,2.5 0 0 1 1019,893.7188 L1019,982.1094 A2.5,2.5 0 0 1 1016.5,984.6094 L831.5,984.6094 A2.5,2.5 0 0 1 829,982.1094 L829,870.1094 A2.5,2.5 0 0 1 831.5,867.6094" fill="none" style="stroke:#000000;stroke-width:1.5;"/><line style="stroke:#000000;stroke-width:1.5;" x1="829" x2="955.5586" y1="891.2188" y2="891.2188"/><text fill="#000000" font-family="sans-serif" font-size="14" font-weight="bold" lengthAdjust="spacing" textLength="113.5586" x="833" y="884.1426">Monitoring Layer</text></g><!--entity mobile_app--><g class="entity" data-entity="mobile_app" data-source-line="9" data-uid="ent0006" id="entity_mobile_app"><rect fill="#F1F1F1" height="47.6094" rx="2.5" ry="2.5" style="stroke:#181818;stroke-width:0.5;" width="148.9443" x="841.5" y="125.6094"/><rect fill="#F1F1F1" height="10" style="stroke:#181818;stroke-width:0.5;" width="15" x="970.4443" y="130.6094"/><rect fill="#F1F1F1" height="2" style="stroke:#181818;stroke-width:0.5;" width="4" x="968.4443" y="132.6094"/><rect fill="#F1F1F1" height="2" style="stroke:#181818;stroke-width:0.5;" width="4" x="968.4443" y="136.6094"/><text fill="#000000" font-family="sans-serif" font-size="14" lengthAdjust="spacing" textLength="108.9443" x="856.5" y="160.1426">Aplikacja Mobilna</text></g><!--entity admin_panel--><g class="entity" data-entity="admin_panel" data-source-line="10" data-uid="ent0007" id="entity_admin_panel"><rect fill="#F1F1F1" height="47.6094" rx="2.5" ry="2.5" style="stroke:#181818;stroke-width:0.5;" width="177.7236" x="1026" y="125.6094"/><rect fill="#F1F1F1" height="10" style="stroke:#181818;stroke-width:0.5;" width="15" x="1183.7236" y="130.6094"/><rect fill="#F1F1F1" height="2" style="stroke:#181818;stroke-width:0.5;" width="4" x="1181.7236" y="132.6094"/><rect fill="#F1F1F1" height="2" style="stroke:#181818;stroke-width:0.5;" width="4" x="1181.7236" y="136.6094"/><text fill="#000000" font-family="sans-serif" font-size="14" lengthAdjust="spacing" textLength="137.7236" x="1041" y="160.1426">Panel Administracyjny</text></g><!--entity api_gateway--><g class="entity" data-entity="api_gateway" data-source-line="11" data-uid="ent0008" id="entity_api_gateway"><ellipse cx="902" cy="281.6094" fill="#F1F1F1" rx="8" ry="8" style="stroke:#181818;stroke-width:0.5;"/><text fill="#000000" font-family="sans-serif" font-size="14" lengthAdjust="spacing" textLength="81.7031" x="861.1484" y="313.1426">API Gateway</text><text fill="#000000" font-family="sans-serif" font-size="14" font-style="italic" lengthAdjust="spacing" textLength="67.7168" x="868.1416" y="261.5332">&#171;gateway&#187;</text></g><!--entity auth_service--><g class="entity" data-entity="auth_service" data-source-line="15" data-uid="ent0010" id="entity_auth_service"><rect fill="#F1F1F1" height="65.2188" rx="2.5" ry="2.5" style="stroke:#181818;stroke-width:0.5;" width="187.8271" x="1035" y="413.6094"/><rect fill="#F1F1F1" height="10" style="stroke:#181818;stroke-width:0.5;" width="15" x="1202.8271" y="418.6094"/><rect fill="#F1F1F1" height="2" style="stroke:#181818;stroke-width:0.5;" width="4" x="1200.8271" y="420.6094"/><rect fill="#F1F1F1" height="2" style="stroke:#181818;stroke-width:0.5;" width="4" x="1200.8271" y="424.6094"/><text fill="#000000" font-family="sans-serif" font-size="14" font-style="italic" lengthAdjust="spacing" textLength="59.917" x="1093.9551" y="448.1426">&#171;service&#187;</text><text fill="#000000" font-family="sans-serif" font-size="14" lengthAdjust="spacing" textLength="147.8271" x="1050" y="465.752">Serwis Uwierzytelniania</text></g><!--entity account_service--><g class="entity" data-entity="account_service" data-source-line="16" data-uid="ent0011" id="entity_account_service"><rect fill="#F1F1F1" height="65.2188" rx="2.5" ry="2.5" style="stroke:#181818;stroke-width:0.5;" width="218.1855" x="122" y="413.6094"/><rect fill="#F1F1F1" height="10" style="stroke:#181818;stroke-width:0.5;" width="15" x="320.1855" y="418.6094"/><rect fill="#F1F1F1" height="2" style="stroke:#181818;stroke-width:0.5;" width="4" x="318.1855" y="420.6094"/><rect fill="#F1F1F1" height="2" style="stroke:#181818;stroke-width:0.5;" width="4" x="318.1855" y="424.6094"/><text fill="#000000" font-family="sans-serif" font-size="14" font-style="italic" lengthAdjust="spacing" textLength="59.917" x="196.1343" y="448.1426">&#171;service&#187;</text><text fill="#000000" font-family="sans-serif" font-size="14" lengthAdjust="spacing" textLength="178.1855" x="137" y="465.752">Serwis Zarz&#261;dzania Kontami</text></g><!--entity payment_service--><g class="entity" data-entity="payment_service" data-source-line="17" data-uid="ent0012" id="entity_payment_service"><rect fill="#F1F1F1" height="65.2188" rx="2.5" ry="2.5" style="stroke:#181818;stroke-width:0.5;" width="142.7031" x="375.5" y="413.6094"/><rect fill="#F1F1F1" height="10" style="stroke:#181818;stroke-width:0.5;" width="15" x="498.2031" y="418.6094"/><rect fill="#F1F1F1" height="2" style="stroke:#181818;stroke-width:0.5;" width="4" x="496.2031" y="420.6094"/><rect fill="#F1F1F1" height="2" style="stroke:#181818;stroke-width:0.5;" width="4" x="496.2031" y="424.6094"/><text fill="#000000" font-family="sans-serif" font-size="14" font-style="italic" lengthAdjust="spacing" textLength="59.917" x="411.8931" y="448.1426">&#171;service&#187;</text><text fill="#000000" font-family="sans-serif" font-size="14" lengthAdjust="spacing" textLength="102.7031" x="390.5" y="465.752">Serwis P&#322;atno&#347;ci</text></g><!--entity card_service--><g class="entity" data-entity="card_service" data-source-line="18" data-uid="ent0013" id="entity_card_service"><rect fill="#F1F1F1" height="65.2188" rx="2.5" ry="2.5" style="stroke:#181818;stroke-width:0.5;" width="215.0615" x="553.5" y="413.6094"/><rect fill="#F1F1F1" height="10" style="stroke:#181818;stroke-width:0.5;" width="15" x="748.5615" y="418.6094"/><rect fill="#F1F1F1" height="2" style="stroke:#181818;stroke-width:0.5;" width="4" x="746.5615" y="420.6094"/><rect fill="#F1F1F1" height="2" style="stroke:#181818;stroke-width:0.5;" width="4" x="746.5615" y="424.6094"/><text fill="#000000" font-family="sans-serif" font-size="14" font-style="italic" lengthAdjust="spacing" textLength="59.917" x="626.0723" y="448.1426">&#171;service&#187;</text><text fill="#000000" font-family="sans-serif" font-size="14" lengthAdjust="spacing" textLength="175.0615" x="568.5" y="465.752">Serwis Zarz&#261;dzania Kartami</text></g><!--entity transaction_service--><g class="entity" data-entity="transaction_service" data-source-line="19" data-uid="ent0014" id="entity_transaction_service"><rect fill="#F1F1F1" height="65.2188" rx="2.5" ry="2.5" style="stroke:#181818;stroke-width:0.5;" width="196.3584" x="804" y="413.6094"/><rect fill="#F1F1F1" height="10" style="stroke:#181818;stroke-width:0.5;" width="15" x="980.3584" y="418.6094"/><rect fill="#F1F1F1" height="2" style="stroke:#181818;stroke-width:0.5;" width="4" x="978.3584" y="420.6094"/><rect fill="#F1F1F1" height="2" style="stroke:#181818;stroke-width:0.5;" width="4" x="978.3584" y="424.6094"/><text fill="#000000" font-family="sans-serif" font-size="14" font-style="italic" lengthAdjust="spacing" textLength="59.917" x="867.2207" y="448.1426">&#171;service&#187;</text><text fill="#000000" font-family="sans-serif" font-size="14" lengthAdjust="spacing" textLength="156.3584" x="819" y="465.752">Serwis Historii Transakcji</text></g><!--entity account_db--><g class="entity" data-entity="account_db" data-source-line="23" data-uid="ent0016" id="entity_account_db"><path d="M383.5,755.6094 C383.5,745.6094 425.7998,745.6094 425.7998,745.6094 C425.7998,745.6094 468.0996,745.6094 468.0996,755.6094 L468.0996,782.2188 C468.0996,792.2188 425.7998,792.2188 425.7998,792.2188 C425.7998,792.2188 383.5,792.2188 383.5,782.2188 L383.5,755.6094" fill="#F1F1F1" style="stroke:#181818;stroke-width:0.5;"/><path d="M383.5,755.6094 C383.5,765.6094 425.7998,765.6094 425.7998,765.6094 C425.7998,765.6094 468.0996,765.6094 468.0996,755.6094" fill="none" style="stroke:#181818;stroke-width:0.5;"/><text fill="#000000" font-family="sans-serif" font-size="14" lengthAdjust="spacing" textLength="64.5996" x="393.5" y="784.1426">Baza Kont</text></g><!--entity payment_db--><g class="entity" data-entity="payment_db" data-source-line="24" data-uid="ent0017" id="entity_payment_db"><path d="M503.5,755.6094 C503.5,745.6094 559.8032,745.6094 559.8032,745.6094 C559.8032,745.6094 616.1064,745.6094 616.1064,755.6094 L616.1064,782.2188 C616.1064,792.2188 559.8032,792.2188 559.8032,792.2188 C559.8032,792.2188 503.5,792.2188 503.5,782.2188 L503.5,755.6094" fill="#F1F1F1" style="stroke:#181818;stroke-width:0.5;"/><path d="M503.5,755.6094 C503.5,765.6094 559.8032,765.6094 559.8032,765.6094 C559.8032,765.6094 616.1064,765.6094 616.1064,755.6094" fill="none" style="stroke:#181818;stroke-width:0.5;"/><text fill="#000000" font-family="sans-serif" font-size="14" lengthAdjust="spacing" textLength="92.6064" x="513.5" y="784.1426">Baza P&#322;atno&#347;ci</text></g><!--entity card_db--><g class="entity" data-entity="card_db" data-source-line="25" data-uid="ent0018" id="entity_card_db"><path d="M651.5,755.6094 C651.5,745.6094 692.2378,745.6094 692.2378,745.6094 C692.2378,745.6094 732.9756,745.6094 732.9756,755.6094 L732.9756,782.2188 C732.9756,792.2188 692.2378,792.2188 692.2378,792.2188 C692.2378,792.2188 651.5,792.2188 651.5,782.2188 L651.5,755.6094" fill="#F1F1F1" style="stroke:#181818;stroke-width:0.5;"/><path d="M651.5,755.6094 C651.5,765.6094 692.2378,765.6094 692.2378,765.6094 C692.2378,765.6094 732.9756,765.6094 732.9756,755.6094" fill="none" style="stroke:#181818;stroke-width:0.5;"/><text fill="#000000" font-family="sans-serif" font-size="14" lengthAdjust="spacing" textLength="61.4756" x="661.5" y="784.1426">Baza Kart</text></g><!--entity transaction_db--><g class="entity" data-entity="transaction_db" data-source-line="26" data-uid="ent0019" id="entity_transaction_db"><path d="M768,755.6094 C768,745.6094 827.7964,745.6094 827.7964,745.6094 C827.7964,745.6094 887.5928,745.6094 887.5928,755.6094 L887.5928,782.2188 C887.5928,792.2188 827.7964,792.2188 827.7964,792.2188 C827.7964,792.2188 768,792.2188 768,782.2188 L768,755.6094" fill="#F1F1F1" style="stroke:#181818;stroke-width:0.5;"/><path d="M768,755.6094 C768,765.6094 827.7964,765.6094 827.7964,765.6094 C827.7964,765.6094 887.5928,765.6094 887.5928,755.6094" fill="none" style="stroke:#181818;stroke-width:0.5;"/><text fill="#000000" font-family="sans-serif" font-size="14" lengthAdjust="spacing" textLength="99.5928" x="778" y="784.1426">Baza Transakcji</text></g><!--entity message_bus--><g class="entity" data-entity="message_bus" data-source-line="30" data-uid="ent0021" id="entity_message_bus"><path d="M1175.5,599.1094 L1338.0098,599.1094 C1343.0098,599.1094 1343.0098,612.9141 1343.0098,612.9141 C1343.0098,612.9141 1343.0098,626.7188 1338.0098,626.7188 L1175.5,626.7188 C1170.5,626.7188 1170.5,612.9141 1170.5,612.9141 C1170.5,612.9141 1170.5,599.1094 1175.5,599.1094" fill="#F1F1F1" style="stroke:#181818;stroke-width:0.5;"/><path d="M1338.0098,599.1094 C1333.0098,599.1094 1333.0098,612.9141 1333.0098,612.9141 C1333.0098,626.7188 1338.0098,626.7188 1338.0098,626.7188" fill="none" style="stroke:#181818;stroke-width:0.5;"/><text fill="#000000" font-family="sans-serif" font-size="14" lengthAdjust="spacing" textLength="152.5098" x="1175.5" y="618.6426">Magistrala Komunikat&#243;w</text></g><!--entity notification_service--><g class="entity" data-entity="notification_service" data-source-line="31" data-uid="ent0022" id="entity_notification_service"><rect fill="#F1F1F1" height="65.2188" rx="2.5" ry="2.5" style="stroke:#181818;stroke-width:0.5;" width="169.9443" x="1174" y="736.6094"/><rect fill="#F1F1F1" height="10" style="stroke:#181818;stroke-width:0.5;" width="15" x="1323.9443" y="741.6094"/><rect fill="#F1F1F1" height="2" style="stroke:#181818;stroke-width:0.5;" width="4" x="1321.9443" y="743.6094"/><rect fill="#F1F1F1" height="2" style="stroke:#181818;stroke-width:0.5;" width="4" x="1321.9443" y="747.6094"/><text fill="#000000" font-family="sans-serif" font-size="14" font-style="italic" lengthAdjust="spacing" textLength="59.917" x="1224.0137" y="771.1426">&#171;service&#187;</text><text fill="#000000" font-family="sans-serif" font-size="14" lengthAdjust="spacing" textLength="129.9443" x="1189" y="788.752">Serwis Powiadomie&#324;</text></g><!--entity reporting_service--><g class="entity" data-entity="reporting_service" data-source-line="32" data-uid="ent0023" id="entity_reporting_service"><rect fill="#F1F1F1" height="65.2188" rx="2.5" ry="2.5" style="stroke:#181818;stroke-width:0.5;" width="172.2822" x="963" y="580.6094"/><rect fill="#F1F1F1" height="10" style="stroke:#181818;stroke-width:0.5;" width="15" x="1115.2822" y="585.6094"/><rect fill="#F1F1F1" height="2" style="stroke:#181818;stroke-width:0.5;" width="4" x="1113.2822" y="587.6094"/><rect fill="#F1F1F1" height="2" style="stroke:#181818;stroke-width:0.5;" width="4" x="1113.2822" y="591.6094"/><text fill="#000000" font-family="sans-serif" font-size="14" font-style="italic" lengthAdjust="spacing" textLength="59.917" x="1014.1826" y="615.1426">&#171;service&#187;</text><text fill="#000000" font-family="sans-serif" font-size="14" lengthAdjust="spacing" textLength="132.2822" x="978" y="632.752">Serwis Raportowania</text></g><!--entity logging_system--><g class="entity" data-entity="logging_system" data-source-line="36" data-uid="ent0025" id="entity_logging_system"><rect fill="#F1F1F1" height="65.2188" rx="2.5" ry="2.5" style="stroke:#181818;stroke-width:0.5;" width="158.2891" x="845" y="903.6094"/><rect fill="#F1F1F1" height="10" style="stroke:#181818;stroke-width:0.5;" width="15" x="983.2891" y="908.6094"/><rect fill="#F1F1F1" height="2" style="stroke:#181818;stroke-width:0.5;" width="4" x="981.2891" y="910.6094"/><rect fill="#F1F1F1" height="2" style="stroke:#181818;stroke-width:0.5;" width="4" x="981.2891" y="914.6094"/><text fill="#000000" font-family="sans-serif" font-size="14" font-style="italic" lengthAdjust="spacing" textLength="47.4688" x="895.4102" y="938.1426">&#171;utility&#187;</text><text fill="#000000" font-family="sans-serif" font-size="14" lengthAdjust="spacing" textLength="118.2891" x="860" y="955.752">System Logowania</text></g><!--entity sms_gateway--><g class="entity" data-entity="sms_gateway" data-source-line="4" data-uid="ent0002" id="entity_sms_gateway"><path d="M1710.1422,920.126 C1713.233,914.0627 1718.5958,913.4848 1722.1875,919.6319 C1725.1039,912.6175 1732.0363,911.9289 1736.3152,918.181 C1739.9151,913.1081 1744.631,912.8241 1748.189,918.2285 C1750.2629,911.1301 1755.6191,911.2355 1760.2458,915.526 C1764.1733,910.6327 1768.5658,912.4172 1770.8058,917.3411 C1775.4669,911.0781 1780.2432,912.0067 1784.4274,917.8766 C1788.7289,912.9053 1793.153,914.3116 1794.8866,920.3224 C1799.6813,914.9484 1803.2427,915.8744 1806.8389,921.6115 C1816.1529,922.6831 1819.0806,929.452 1814.8682,937.4017 C1818.8816,944.0932 1816.3251,951.0554 1807.9504,951.7914 C1804.9428,959.0387 1800.3215,959.9695 1794.4844,954.8799 C1791.7627,960.234 1788.4425,961.4703 1783.9764,956.6884 C1781.2259,963.2923 1776.1452,963.3057 1771.6108,958.647 C1768.4676,965.6951 1763.1112,965.0368 1758.7044,959.9962 C1754.7551,964.5667 1748.4948,964.9481 1746.2825,958.1056 C1742.0597,962.9215 1737.0205,962.008 1734.762,956.0125 C1730.3579,961.6995 1724.6296,960.1377 1722.1376,953.9752 C1718.26,959.3987 1713.7061,957.9027 1710.6864,953.0218 C1700.5025,951.2752 1698.8356,945.9445 1703.8907,937.5182 C1697.2406,929.9066 1700.0947,921.7358 1710.1422,920.126" fill="#F1F1F1" style="stroke:#181818;stroke-width:0.5;"/><text fill="#000000" font-family="sans-serif" font-size="14" lengthAdjust="spacing" textLength="82.4619" x="1717" y="941.6426">Bramka SMS</text></g><!--entity email_server--><g class="entity" data-entity="email_server" data-source-line="5" data-uid="ent0003" id="entity_email_server"><path d="M1555.9261,921.3632 C1558.737,915.7039 1564.2732,913.5999 1568.7289,919.5492 C1572.9903,913.9424 1577.6583,913.4791 1581.9047,919.5661 C1585.2048,912.1543 1589.764,911.7039 1595.3172,917.2303 C1599.0066,909.6955 1603.7153,909.9469 1609.0655,915.4834 C1613.4324,910.6147 1619.8234,911.629 1622.3198,917.7411 C1626.4563,912.6489 1632.1266,912.154 1634.9721,919.0982 C1638.9969,913.6128 1643.6619,912.3627 1647.6859,919.099 C1652.9626,914.0988 1658.1208,913.8016 1661.2514,921.4083 C1669.4523,924.798 1670.0964,931.7188 1662.4733,936.3984 C1669.9629,941.6968 1669.1027,948.3629 1661.4402,952.7011 C1657.5916,959.9616 1652.6335,961.289 1647.2323,954.243 C1644.5822,960.7324 1639.6061,961.7735 1635.1718,955.9972 C1633.4293,964.1285 1626.5824,964.9041 1621.4217,959.4591 C1618.7729,966.0403 1613.5945,966.1952 1609.1348,961.4181 C1603.133,968.2874 1597.0087,965.8993 1594.516,957.9551 C1589.983,963.7339 1585.7899,962.4738 1582.3406,956.8028 C1577.8664,963.1442 1571.2564,962.8104 1568.4982,955.111 C1564.4871,960.2657 1558.932,959.2797 1557.1905,952.8883 C1548.6435,951.1778 1543.8711,945.4147 1550.5512,937.2426 C1544.1396,929.6255 1546.1039,923.4853 1555.9261,921.3632" fill="#F1F1F1" style="stroke:#181818;stroke-width:0.5;"/><text fill="#000000" font-family="sans-serif" font-size="14" lengthAdjust="spacing" textLength="90.248" x="1562" y="941.6426">Serwer Poczty</text></g><!--link mobile_app to api_gateway--><g class="link" data-entity-1="mobile_app" data-entity-2="api_gateway" data-source-line="41" data-uid="lnk26" id="link_mobile_app_api_gateway"><path d="M913.5,173.8494 C910.3,203.4994 905.595,247.2941 903.505,266.6241" fill="none" id="mobile_app-to-api_gateway" style="stroke:#181818;stroke-width:1;"/><polygon fill="#181818" points="902.86,272.5894,907.8043,264.0715,903.3975,267.6183,899.8506,263.2115,902.86,272.5894" style="stroke:#181818;stroke-width:1;"/><text fill="#000000" font-family="sans-serif" font-size="13" lengthAdjust="spacing" textLength="58.5063" x="911" y="218.1045">HTTP API</text></g><!--link api_gateway to auth_service--><g class="link" data-entity-1="api_gateway" data-entity-2="auth_service" data-source-line="42" data-uid="lnk27" id="link_api_gateway_auth_service"><path d="M911.18,289.1794 C939.96,309.7894 1024.9016,370.5863 1079.8016,409.8963" fill="none" id="api_gateway-to-auth_service" style="stroke:#181818;stroke-width:1;"/><polygon fill="#181818" points="1084.68,413.3894,1079.6911,404.8975,1080.6147,410.4785,1075.0337,411.402,1084.68,413.3894" style="stroke:#181818;stroke-width:1;"/><text fill="#000000" font-family="sans-serif" font-size="13" lengthAdjust="spacing" textLength="67.9199" x="1009" y="358.1045">Autoryzacja</text></g><!--link api_gateway to account_service--><g class="link" data-entity-1="api_gateway" data-entity-2="account_service" data-source-line="43" data-uid="lnk28" id="link_api_gateway_account_service"><path d="M892.66,282.6694 C838.8,283.2894 563.22,290.3894 358,369.6094 C329.05,380.7894 304.1178,394.9851 280.5778,410.3151" fill="none" id="api_gateway-to-account_service" style="stroke:#181818;stroke-width:1;"/><polygon fill="#181818" points="275.55,413.5894,285.2746,412.0298,279.7399,410.8608,280.9089,405.3261,275.55,413.5894" style="stroke:#181818;stroke-width:1;"/><text fill="#000000" font-family="sans-serif" font-size="13" lengthAdjust="spacing" textLength="58.5063" x="429" y="358.1045">HTTP API</text></g><!--link api_gateway to payment_service--><g class="link" data-entity-1="api_gateway" data-entity-2="payment_service" data-source-line="44" data-uid="lnk29" id="link_api_gateway_payment_service"><path d="M892.97,283.2094 C850.48,286.3394 667.12,303.2594 536,369.6094 C514.12,380.6794 497.3877,394.0145 481.2477,409.3645" fill="none" id="api_gateway-to-payment_service" style="stroke:#181818;stroke-width:1;"/><polygon fill="#181818" points="476.9,413.4994,486.1782,410.1955,480.5231,410.0536,480.665,404.3985,476.9,413.4994" style="stroke:#181818;stroke-width:1;"/><text fill="#000000" font-family="sans-serif" font-size="13" lengthAdjust="spacing" textLength="58.5063" x="593" y="358.1045">HTTP API</text></g><!--link api_gateway to card_service--><g class="link" data-entity-1="api_gateway" data-entity-2="card_service" data-source-line="45" data-uid="lnk30" id="link_api_gateway_card_service"><path d="M892.85,288.7794 C862.93,308.9594 771.5449,370.5752 712.8849,410.1252" fill="none" id="api_gateway-to-card_service" style="stroke:#181818;stroke-width:1;"/><polygon fill="#181818" points="707.91,413.4794,717.6084,411.7647,712.0557,410.6842,713.1362,405.1315,707.91,413.4794" style="stroke:#181818;stroke-width:1;"/><text fill="#000000" font-family="sans-serif" font-size="13" lengthAdjust="spacing" textLength="58.5063" x="811" y="358.1045">HTTP API</text></g><!--link api_gateway to transaction_service--><g class="link" data-entity-1="api_gateway" data-entity-2="transaction_service" data-source-line="46" data-uid="lnk31" id="link_api_gateway_transaction_service"><path d="M902,290.8894 C902,313.1394 902,369.1094 902,407.3794" fill="none" id="api_gateway-to-transaction_service" style="stroke:#181818;stroke-width:1;"/><polygon fill="#181818" points="902,413.3794,906,404.3794,902,408.3794,898,404.3794,902,413.3794" style="stroke:#181818;stroke-width:1;"/><text fill="#000000" font-family="sans-serif" font-size="13" lengthAdjust="spacing" textLength="58.5063" x="903" y="358.1045">HTTP API</text></g><!--link account_service to account_db--><g class="link" data-entity-1="account_service" data-entity-2="account_db" data-source-line="48" data-uid="lnk32" id="link_account_service_account_db"><path d="M240.05,478.9794 C258.01,541.6094 297.61,676.1694 311,693.6094 C329.76,718.0394 353.643,734.0583 377.933,746.6483" fill="none" id="account_service-to-account_db" style="stroke:#181818;stroke-width:1;"/><polygon fill="#181818" points="383.26,749.4094,377.1103,741.7165,378.8209,747.1085,373.4288,748.8191,383.26,749.4094" style="stroke:#181818;stroke-width:1;"/><text fill="#000000" font-family="sans-serif" font-size="13" lengthAdjust="spacing" textLength="65.0254" x="291" y="618.6045">SQL Query</text></g><!--link payment_service to payment_db--><g class="link" data-entity-1="payment_service" data-entity-2="payment_db" data-source-line="49" data-uid="lnk33" id="link_payment_service_payment_db"><path d="M446.39,478.9094 C446.71,527.7294 452.38,622.8994 488,693.6094 C498.11,713.6894 511.0259,727.9441 526.1859,741.3541" fill="none" id="payment_service-to-payment_db" style="stroke:#181818;stroke-width:1;"/><polygon fill="#181818" points="530.68,745.3294,526.5891,736.3703,526.9349,742.0166,521.2887,742.3625,530.68,745.3294" style="stroke:#181818;stroke-width:1;"/><text fill="#000000" font-family="sans-serif" font-size="13" lengthAdjust="spacing" textLength="65.0254" x="469" y="618.6045">SQL Query</text></g><!--link card_service to card_db--><g class="link" data-entity-1="card_service" data-entity-2="card_db" data-source-line="50" data-uid="lnk34" id="link_card_service_card_db"><path d="M638.09,478.6994 C604.39,529.3494 550.63,629.5594 601,693.6094 C610.33,705.4694 621.1,693.7794 634,701.6094 C651.94,712.4994 663.8174,725.8864 674.2074,740.5264" fill="none" id="card_service-to-card_db" style="stroke:#181818;stroke-width:1;"/><polygon fill="#181818" points="677.68,745.4194,675.7332,735.7649,674.7862,741.3419,669.2092,740.3949,677.68,745.4194" style="stroke:#181818;stroke-width:1;"/><text fill="#000000" font-family="sans-serif" font-size="13" lengthAdjust="spacing" textLength="65.0254" x="605" y="618.6045">SQL Query</text></g><!--link transaction_service to transaction_db--><g class="link" data-entity-1="transaction_service" data-entity-2="transaction_db" data-source-line="51" data-uid="lnk35" id="link_transaction_service_transaction_db"><path d="M829.52,478.6594 C802.91,493.1494 774.36,512.5294 754,536.6094 C711.11,587.3494 711.44,610.3494 699,675.6094 C697.5,683.4694 693.8,687.5294 699,693.6094 C713.91,711.0494 729.15,692.0294 750,701.6094 C772.48,711.9394 789.3538,726.361 803.9138,741.311" fill="none" id="transaction_service-to-transaction_db" style="stroke:#181818;stroke-width:1;"/><polygon fill="#181818" points="808.1,745.6094,804.6862,736.3711,804.6115,742.0274,798.9551,741.9527,808.1,745.6094" style="stroke:#181818;stroke-width:1;"/><text fill="#000000" font-family="sans-serif" font-size="13" lengthAdjust="spacing" textLength="65.0254" x="755" y="618.6045">SQL Query</text></g><!--link account_service to message_bus--><g class="link" data-entity-1="account_service" data-entity-2="message_bus" data-source-line="53" data-uid="lnk36" id="link_account_service_message_bus"><path d="M291.15,478.6994 C311.79,488.0994 335.4,497.2894 358,502.6094 C581.95,555.3094 645.11,519.5194 875,528.6094 C905.88,529.8294 1123.75,526.6394 1153,536.6094 C1190.59,549.4194 1221.924,576.7002 1240.124,594.7002" fill="none" id="account_service-to-message_bus" style="stroke:#181818;stroke-width:1;"/><polygon fill="#181818" points="1244.39,598.9194,1240.8037,589.7467,1240.835,595.4034,1235.1782,595.4347,1244.39,598.9194" style="stroke:#181818;stroke-width:1;"/><text fill="#000000" font-family="sans-serif" font-size="13" lengthAdjust="spacing" textLength="68.6372" x="876" y="525.1045">Wydarzenie</text></g><!--link payment_service to message_bus--><g class="link" data-entity-1="payment_service" data-entity-2="message_bus" data-source-line="54" data-uid="lnk37" id="link_payment_service_message_bus"><path d="M487.31,478.6394 C501.84,488.2094 518.89,497.5294 536,502.6094 C580.43,515.7894 907.22,503.4394 953,510.6094 C980.51,514.9194 985.58,523.7794 1013,528.6094 C1043.69,534.0094 1123.65,526.1394 1153,536.6094 C1190.41,549.9494 1221.7871,577.0476 1240.0471,594.8776" fill="none" id="payment_service-to-message_bus" style="stroke:#181818;stroke-width:1;"/><polygon fill="#181818" points="1244.34,599.0694,1240.6952,589.9198,1240.7626,595.5762,1235.1061,595.6436,1244.34,599.0694" style="stroke:#181818;stroke-width:1;"/><text fill="#000000" font-family="sans-serif" font-size="13" lengthAdjust="spacing" textLength="68.6372" x="1014" y="525.1045">Wydarzenie</text></g><!--link card_service to message_bus--><g class="link" data-entity-1="card_service" data-entity-2="message_bus" data-source-line="55" data-uid="lnk38" id="link_card_service_message_bus"><path d="M719.94,478.7294 C740.56,488.2394 764.26,497.5094 787,502.6094 C852.94,517.3994 1024.93,496.4094 1091,510.6094 C1098.3,512.1794 1146.49,532.9494 1153,536.6094 C1186.25,555.3194 1216.8348,578.9217 1236.5648,595.0517" fill="none" id="card_service-to-message_bus" style="stroke:#181818;stroke-width:1;"/><polygon fill="#181818" points="1241.21,598.8494,1236.7739,590.0561,1237.339,595.6847,1231.7104,596.2497,1241.21,598.8494" style="stroke:#181818;stroke-width:1;"/><text fill="#000000" font-family="sans-serif" font-size="13" lengthAdjust="spacing" textLength="68.6372" x="1136" y="525.1045">Wydarzenie</text></g><!--link transaction_service to message_bus--><g class="link" data-entity-1="transaction_service" data-entity-2="message_bus" data-source-line="56" data-uid="lnk39" id="link_transaction_service_message_bus"><path d="M956.34,478.6994 C975.24,488.1594 996.98,497.3894 1018,502.6094 C1039.26,507.8894 1197.04,498.0694 1215,510.6094 C1244.4,531.1294 1252.5714,570.2902 1255.2114,592.8102" fill="none" id="transaction_service-to-message_bus" style="stroke:#181818;stroke-width:1;"/><polygon fill="#181818" points="1255.91,598.7694,1258.8349,589.3649,1255.3278,593.8034,1250.8893,590.2963,1255.91,598.7694" style="stroke:#181818;stroke-width:1;"/><text fill="#000000" font-family="sans-serif" font-size="13" lengthAdjust="spacing" textLength="68.6372" x="1232" y="525.1045">Wydarzenie</text></g><!--link message_bus to notification_service--><g class="link" data-entity-1="message_bus" data-entity-2="notification_service" data-source-line="58" data-uid="lnk40" id="link_message_bus_notification_service"><path d="M1257.17,627.2394 C1257.48,651.2394 1258.0715,696.8299 1258.5115,730.4599" fill="none" id="message_bus-to-notification_service" style="stroke:#181818;stroke-width:1;"/><polygon fill="#181818" points="1258.59,736.4594,1262.4719,727.4078,1258.5246,731.4598,1254.4726,727.5125,1258.59,736.4594" style="stroke:#181818;stroke-width:1;"/><text fill="#000000" font-family="sans-serif" font-size="13" lengthAdjust="spacing" textLength="67.9072" x="1259" y="690.1045">Wiadomo&#347;&#263;</text></g><!--link notification_service to sms_gateway--><g class="link" data-entity-1="notification_service" data-entity-2="sms_gateway" data-source-line="59" data-uid="lnk41" id="link_notification_service_sms_gateway"><path d="M1344.12,773.3794 C1433.95,780.0494 1577.17,800.0494 1685,859.6094 C1708.14,872.3894 1724.8121,890.1788 1738.1021,907.3088" fill="none" id="notification_service-to-sms_gateway" style="stroke:#181818;stroke-width:1;"/><polygon fill="#181818" points="1741.78,912.0494,1739.4235,902.4866,1738.7151,908.0989,1733.1028,907.3904,1741.78,912.0494" style="stroke:#181818;stroke-width:1;"/><text fill="#000000" font-family="sans-serif" font-size="13" lengthAdjust="spacing" textLength="28.1709" x="1665" y="848.1045">SMS</text></g><!--link notification_service to email_server--><g class="link" data-entity-1="notification_service" data-entity-2="email_server" data-source-line="60" data-uid="lnk42" id="link_notification_service_email_server"><path d="M1325.69,801.7294 C1393.77,834.0094 1492.4085,880.779 1553.0485,909.529" fill="none" id="notification_service-to-email_server" style="stroke:#181818;stroke-width:1;"/><polygon fill="#181818" points="1558.47,912.0994,1552.0513,904.6294,1553.9521,909.9574,1548.6241,911.8581,1558.47,912.0994" style="stroke:#181818;stroke-width:1;"/><text fill="#000000" font-family="sans-serif" font-size="13" lengthAdjust="spacing" textLength="32.5063" x="1423" y="848.1045">Email</text></g><!--link admin_panel to reporting_service--><g class="link" data-entity-1="admin_panel" data-entity-2="reporting_service" data-source-line="62" data-uid="lnk43" id="link_admin_panel_reporting_service"><path d="M1197.05,173.7094 C1284.42,203.6494 1407.44,263.9094 1386,361.6094 C1368.48,441.4394 1376.69,482.7994 1309,528.6094 C1294.63,538.3394 1169.36,530.8294 1153,536.6094 C1126.7,545.8994 1105.8666,560.2393 1086.7466,576.4493" fill="none" id="admin_panel-to-reporting_service" style="stroke:#181818;stroke-width:1;"/><polygon fill="#181818" points="1082.17,580.3294,1091.6216,577.5604,1085.9838,577.096,1086.4482,571.4582,1082.17,580.3294" style="stroke:#181818;stroke-width:1;"/><text fill="#000000" font-family="sans-serif" font-size="13" lengthAdjust="spacing" textLength="88.8799" x="1389" y="358.1045">Generuj Raport</text></g><!--link reporting_service to account_db--><g class="link" data-entity-1="reporting_service" data-entity-2="account_db" data-source-line="63" data-uid="lnk44" id="link_reporting_service_account_db"><path d="M962.81,624.8694 C913.16,631.0294 849.58,638.8494 793,645.6094 C677.94,659.3494 644.5,640.7194 534,675.6094 C510.86,682.9194 505.07,686.6094 486,701.6094 C469.87,714.2994 458.2019,726.9213 447.0219,740.6913" fill="none" id="reporting_service-to-account_db" style="stroke:#181818;stroke-width:1;"/><polygon fill="#181818" points="443.24,745.3494,452.0182,740.8836,446.3916,741.4677,445.8075,735.8411,443.24,745.3494" style="stroke:#181818;stroke-width:1;"/><text fill="#000000" font-family="sans-serif" font-size="13" lengthAdjust="spacing" textLength="65.0254" x="535" y="690.1045">SQL Query</text></g><!--link reporting_service to payment_db--><g class="link" data-entity-1="reporting_service" data-entity-2="payment_db" data-source-line="64" data-uid="lnk45" id="link_reporting_service_payment_db"><path d="M962.85,625.1494 C844.94,640.5094 646.16,667.3494 632,675.6094 C604.05,691.9094 585.924,718.3779 574.024,740.0879" fill="none" id="reporting_service-to-payment_db" style="stroke:#181818;stroke-width:1;"/><polygon fill="#181818" points="571.14,745.3494,578.9736,739.3799,573.5433,740.9648,571.9583,735.5346,571.14,745.3494" style="stroke:#181818;stroke-width:1;"/><text fill="#000000" font-family="sans-serif" font-size="13" lengthAdjust="spacing" textLength="65.0254" x="633" y="690.1045">SQL Query</text></g><!--link reporting_service to card_db--><g class="link" data-entity-1="reporting_service" data-entity-2="card_db" data-source-line="65" data-uid="lnk46" id="link_reporting_service_card_db"><path d="M962.67,625.5394 C871.36,638.3694 737.98,659.4894 720,675.6094 C700.26,693.3094 694.7078,718.4092 692.9778,739.6192" fill="none" id="reporting_service-to-card_db" style="stroke:#181818;stroke-width:1;"/><polygon fill="#181818" points="692.49,745.5994,697.2084,736.9543,692.8965,740.6159,689.2349,736.304,692.49,745.5994" style="stroke:#181818;stroke-width:1;"/><text fill="#000000" font-family="sans-serif" font-size="13" lengthAdjust="spacing" textLength="65.0254" x="721" y="690.1045">SQL Query</text></g><!--link reporting_service to transaction_db--><g class="link" data-entity-1="reporting_service" data-entity-2="transaction_db" data-source-line="66" data-uid="lnk47" id="link_reporting_service_transaction_db"><path d="M1003.74,645.6494 C961.06,675.3894 903.0622,715.7983 865.2322,742.1683" fill="none" id="reporting_service-to-transaction_db" style="stroke:#181818;stroke-width:1;"/><polygon fill="#181818" points="860.31,745.5994,869.9806,743.7342,864.4118,742.7401,865.4059,737.1713,860.31,745.5994" style="stroke:#181818;stroke-width:1;"/><text fill="#000000" font-family="sans-serif" font-size="13" lengthAdjust="spacing" textLength="65.0254" x="959" y="690.1045">SQL Query</text></g><!--link api_gateway to logging_system--><g class="link" data-entity-1="api_gateway" data-entity-2="logging_system" data-source-line="68" data-uid="lnk48" id="link_api_gateway_logging_system"><path d="M911.24,282.7794 C953.02,283.9394 1127.15,293.3794 1239,369.6094 C1314.74,421.2294 1331.73,449.4194 1360,536.6094 C1399.61,658.7894 1438.99,724.3294 1360,825.6094 C1316.56,881.3094 1122.5562,912.2559 1009.1062,926.0359" fill="none" id="api_gateway-to-logging_system" style="stroke:#181818;stroke-width:1;"/><polygon fill="#181818" points="1003.15,926.7594,1012.5666,929.645,1008.1135,926.1565,1011.602,921.7034,1003.15,926.7594" style="stroke:#181818;stroke-width:1;"/><text fill="#000000" font-family="sans-serif" font-size="13" lengthAdjust="spacing" textLength="99.0171" x="1396" y="618.6045">Loguje zdarzenia</text></g><!--link account_service to logging_system--><g class="link" data-entity-1="account_service" data-entity-2="logging_system" data-source-line="69" data-uid="lnk49" id="link_account_service_logging_system"><path d="M200.75,478.6694 C163.44,520.0194 102.01,596.5794 78,675.6094 C54.53,752.8394 117.27,783.3594 189,825.6094 C299.05,890.4294 672.5615,920.1188 838.8715,930.4088" fill="none" id="account_service-to-logging_system" style="stroke:#181818;stroke-width:1;"/><polygon fill="#181818" points="844.86,930.7794,836.1242,926.2312,839.8695,930.4706,835.6302,934.216,844.86,930.7794" style="stroke:#181818;stroke-width:1;"/><text fill="#000000" font-family="sans-serif" font-size="13" lengthAdjust="spacing" textLength="99.0171" x="79" y="690.1045">Loguje zdarzenia</text></g><!--link payment_service to logging_system--><g class="link" data-entity-1="payment_service" data-entity-2="logging_system" data-source-line="70" data-uid="lnk50" id="link_payment_service_logging_system"><path d="M401.14,478.8094 C387.63,487.2794 372.57,495.9294 358,502.6094 C311.87,523.7594 286.3,502.1994 249,536.6094 C194.55,586.8394 163.05,625.8494 193,693.6094 C235.23,789.1494 272.48,807.1294 367,851.6094 C450.22,890.7694 705.9419,916.9567 838.8719,928.3567" fill="none" id="payment_service-to-logging_system" style="stroke:#181818;stroke-width:1;"/><polygon fill="#181818" points="844.85,928.8694,836.2247,924.115,839.8683,928.4421,835.5411,932.0857,844.85,928.8694" style="stroke:#181818;stroke-width:1;"/><text fill="#000000" font-family="sans-serif" font-size="13" lengthAdjust="spacing" textLength="99.0171" x="194" y="690.1045">Loguje zdarzenia</text></g><!--link card_service to logging_system--><g class="link" data-entity-1="card_service" data-entity-2="logging_system" data-source-line="71" data-uid="lnk51" id="link_card_service_logging_system"><path d="M625.67,478.9694 C608.49,495.3394 588.13,516.1194 572,536.6094 C536.83,581.2894 550.8,611.9094 505,645.6094 C451.68,684.8394 388.31,638.9394 367,701.6094 C349.25,753.7894 331.99,783.0494 367,825.6094 C426.63,898.1094 699.9603,922.9874 838.9903,931.1574" fill="none" id="card_service-to-logging_system" style="stroke:#181818;stroke-width:1;"/><polygon fill="#181818" points="844.98,931.5094,836.2302,926.9883,839.9886,931.2161,835.7608,934.9745,844.98,931.5094" style="stroke:#181818;stroke-width:1;"/><text fill="#000000" font-family="sans-serif" font-size="13" lengthAdjust="spacing" textLength="99.0171" x="384" y="690.1045">Loguje zdarzenia</text></g><!--link transaction_service to logging_system--><g class="link" data-entity-1="transaction_service" data-entity-2="logging_system" data-source-line="72" data-uid="lnk52" id="link_transaction_service_logging_system"><path d="M858.07,478.8394 C848.72,487.9494 840.13,498.6794 835,510.6094 C831.84,517.9594 834.73,520.6094 835,528.6094 C836.22,565.3394 820.95,666.7294 846,693.6094 C863.74,712.6494 886.08,682.7394 904,701.6094 C955.69,756.0394 944.5439,847.4383 933.5739,897.5183" fill="none" id="transaction_service-to-logging_system" style="stroke:#181818;stroke-width:1;"/><polygon fill="#181818" points="932.29,903.3794,938.1231,895.4437,933.3599,898.4952,930.3084,893.7319,932.29,903.3794" style="stroke:#181818;stroke-width:1;"/><text fill="#000000" font-family="sans-serif" font-size="13" lengthAdjust="spacing" textLength="99.0171" x="847" y="690.1045">Loguje zdarzenia</text></g><!--link notification_service to logging_system--><g class="link" data-entity-1="notification_service" data-entity-2="logging_system" data-source-line="73" data-uid="lnk53" id="link_notification_service_logging_system"><path d="M1195.35,801.6994 C1179.56,809.5294 1162.67,817.8794 1147,825.6094 C1093.62,851.9394 1038.377,879.0573 993.827,900.9073" fill="none" id="notification_service-to-logging_system" style="stroke:#181818;stroke-width:1;"/><polygon fill="#181818" points="988.44,903.5494,998.2818,903.1775,992.9291,901.3476,994.759,895.9949,988.44,903.5494" style="stroke:#181818;stroke-width:1;"/><text fill="#000000" font-family="sans-serif" font-size="13" lengthAdjust="spacing" textLength="99.0171" x="1129" y="848.1045">Loguje zdarzenia</text></g><!--link reporting_service to logging_system--><g class="link" data-entity-1="reporting_service" data-entity-2="logging_system" data-source-line="74" data-uid="lnk54" id="link_reporting_service_logging_system"><path d="M1044.3,645.8694 C1041.69,660.5894 1037.96,678.1994 1033,693.6094 C1007.85,771.7694 967.5703,853.0377 943.8003,898.2877" fill="none" id="reporting_service-to-logging_system" style="stroke:#181818;stroke-width:1;"/><polygon fill="#181818" points="941.01,903.5994,948.7366,897.492,943.3352,899.1729,941.6543,893.7716,941.01,903.5994" style="stroke:#181818;stroke-width:1;"/><text fill="#000000" font-family="sans-serif" font-size="13" lengthAdjust="spacing" textLength="99.0171" x="1030" y="774.6045">Loguje zdarzenia</text></g><!--SRC=[ZLPBRjim4Dth58GsNUK2HH30GOiaQ0muSO82tHXZQgpGbaYL8YjGHJP1YvwXw35wXCRt2YahZZwKAi4BINnl-6OuysJ5L89aQNA5AJa7lXE58ITa9ka3KxXJMaAzgeFWNNrhI8a5V_wjPCcHb2n2hio6MIxOvu9aKb3C6GOq4JeYuRc4T6VZp9SXWPpaQRwAGM41vXMnH5cW90j1IsKg4AR0abMEyXlA8DZO26XXBPqX-HuGUsL0Tn3RvVihSWq6vUk2kwX8Cy6jG1BEieJjW6w1pCMQ9HogZL9tZol8CXzdOJDAo2nA6MUvaa3DbXy4WdktojpwaSYuGha1QhNC5bVauf1aI4vFwtpFpYfgneu5SBJ7e9t7kSuPnpmVpSQLZENalc0eIwCmuGpipstcgiOerfjfzR2gtup4-GAoVFuPbIu6-IIuWfJrOr4gD5SJmYtsJw2usF-X_IWPc1GdHMcB0kaLHK564s9TslCJaZ5o9u7diAFRVYXLBL7516z5x1xG1r3GFvp8lbr3xWuGoaCHmsRLelKGj5MjHeM66QuOuJ7xOLmpsKw2DQcRsvNjuLY2W_HJ_AfHMymSuceQ4fTbghaTA_NlRt6O9zkuDj1ghVEn_X05WqYa3FS_UiV0XM8RHg5t3lvOjv09gPpvUDfVebjaF1uzqBdWp7K7Z-kSNrDkxdOmdsiHlssb5KkOgiSw4N5SRLG1wtqUdMtUOc9znrgZiTPOG5GAvvlM9qlCza-cqBLbwk3DZSZ9oLdJASXx4bxUtIs8TPOmQ2vKmCQKE-HCstHCwTpE0swFyNZaphIEWvkpE8xqZ5gR47HLDfL7QmTUtboJ6utIX45NPLDv3znIUPJTW_aaTgNtI5xPZPbmyCyciiQ6dA5V-0Yy9tq4EwH_X18qrnpMDueLgPfUwrZFlyB02tBinfU-AfFz0p0CRdxn7VgZUtO5VVlGLhZUH3lm1NAKUbjxGHZqGQFjuuSFDf0VxkyYF_O_FTGPbhQpMB0r8MtzfAnFpisuf-qcq7pjDu7MQyC9dA5sd40Tx9a9N7_z9n1V0000]--></g></svg>